<svg xmlns="http://www.w3.org/2000/svg" viewBox="0 0 200 200"><rect width="200" height="200" fill="#0d1117"/><circle cx="100" cy="100" r="90" fill="none" stroke="#00ff41" stroke-width="4"/><circle cx="100" cy="100" r="80" fill="none" stroke="#00ff41" stroke-width="2" opacity="0.5"/><path d="M100 30 L140 50 L140 100 Q140 140 100 160 Q60 140 60 100 L60 50 Z" fill="none" stroke="#00ff41" stroke-width="3"/><rect x="85" y="70" width="30" height="25" rx="3" fill="#00ff41"/><rect x="90" y="60" width="20" height="15" rx="10" fill="none" stroke="#00ff41" stroke-width="3"/><circle cx="100" cy="82" r="3" fill="#0d1117"/><line x1="100" y1="85" x2="100" y2="90" stroke="#0d1117" stroke-width="2"/><line x1="20" y1="100" x2="50" y2="100" stroke="#00ff41" stroke-width="2"/><line x1="150" y1="100" x2="180" y2="100" stroke="#00ff41" stroke-width="2"/><line x1="100" y1="20" x2="100" y2="30" stroke="#00ff41" stroke-width="2"/><line x1="100" y1="160" x2="100" y2="180" stroke="#00ff41" stroke-width="2"/><path d="M30 30 L50 30 L50 40 L40 40 L40 50 L30 50 Z" fill="#00ff41"/><path d="M170 30 L150 30 L150 40 L160 40 L160 50 L170 50 Z" fill="#00ff41"/><path d="M30 170 L50 170 L50 160 L40 160 L40 150 L30 150 Z" fill="#00ff41"/><path d="M170 170 L150 170 L150 160 L160 160 L160 150 L170 150 Z" fill="#00ff41"/><text x="100" y="185" font-family="monospace" font-size="10" fill="#00ff41" text-anchor="middle">MASTA GHIMAU</text></svg> 
